<?xml version="1.0" encoding="UTF-8" standalone="no"?>
<!-- Created with Inkscape (http://www.inkscape.org/) -->

<svg
   xmlns:svg="http://www.w3.org/2000/svg"
   xmlns="http://www.w3.org/2000/svg"
   xmlns:xlink="http://www.w3.org/1999/xlink"
   xmlns:sodipodi="http://sodipodi.sourceforge.net/DTD/sodipodi-0.dtd"
   xmlns:inkscape="http://www.inkscape.org/namespaces/inkscape"
   version="1.0"
   width="64"
   height="80.919312"
   id="svg5472"
   inkscape:version="0.91 r13725"
   sodipodi:docname="attention.svg">
  <sodipodi:namedview
     pagecolor="#ffffff"
     bordercolor="#666666"
     borderopacity="1"
     objecttolerance="10"
     gridtolerance="10"
     guidetolerance="10"
     inkscape:pageopacity="0"
     inkscape:pageshadow="2"
     inkscape:window-width="1514"
     inkscape:window-height="830"
     id="namedview5029"
     showgrid="false"
     inkscape:zoom="7.72"
     inkscape:cx="64.139896"
     inkscape:cy="68.616919"
     inkscape:window-x="0"
     inkscape:window-y="0"
     inkscape:window-maximized="0"
     inkscape:current-layer="svg5472" />
  <defs
     id="defs5474">
    <linearGradient
       id="linearGradient3101">
      <stop
         id="stop5900"
         style="stop-color:#000000;stop-opacity:1"
         offset="0" />
      <stop
         id="stop3105"
         style="stop-color:#000000;stop-opacity:0"
         offset="1" />
    </linearGradient>
    <radialGradient
       cx="17.3125"
       cy="25.53125"
       r="9.6875"
       fx="17.3125"
       fy="25.53125"
       id="radialGradient5097"
       xlink:href="#linearGradient3101"
       gradientUnits="userSpaceOnUse"
       gradientTransform="matrix(1,0,0,0.351613,0,16.55413)" />
    <radialGradient
       cx="17.3125"
       cy="25.53125"
       r="9.6875"
       fx="17.3125"
       fy="25.53125"
       id="radialGradient5508"
       xlink:href="#linearGradient3101"
       gradientUnits="userSpaceOnUse"
       gradientTransform="matrix(3.1904996,0,0,1.1218211,-23.353628,41.235024)" />
  </defs>
  <path
     inkscape:connector-curvature="0"
     style="fill:#ff9200;fill-opacity:0;fill-rule:evenodd;stroke:#ffaa27;stroke-width:5.823;stroke-linecap:butt;stroke-linejoin:round;stroke-miterlimit:4;stroke-dasharray:none;stroke-opacity:1"
     id="path11499"
     d="M 1.6367231,70.087879 31.488887,11.286431 62.713562,70.412758 1.6367231,70.087879 Z" />
  <path
     inkscape:connector-curvature="0"
     style="fill:#ffaa27;fill-opacity:1;fill-rule:nonzero;stroke:none;stroke-width:4.12249994;stroke-linecap:round;stroke-linejoin:round;stroke-miterlimit:4;stroke-dashoffset:0;stroke-opacity:1"
     id="path11486"
     d="m 27.119401,33.710263 c -0.187038,-9.79e-4 -0.344202,0.253248 -0.345795,0.559317 l 1.447052,21.114184 c -0.0015,0.306069 0.152954,0.561904 0.339992,0.562883 0,0 1.228838,0.02368 2.24202,0.01169 0.333751,-0.0044 0.435711,0.03201 0.738565,0.0044 1.013021,0.02265 2.242005,0.01169 2.242005,0.01169 0.187038,9.65e-4 0.344216,-0.253262 0.34581,-0.559332 l 1.665382,-21.098091 c 0.0015,-0.30607 -0.153188,-0.518744 -0.340227,-0.519709 l -3.771869,-0.01958 c -0.01462,-0.0029 -0.01169,-0.04326 -0.02616,-0.04326 l -4.536787,-0.02339 z" />
  <path
     inkscape:connector-curvature="0"
     style="fill:#ffaa27;fill-opacity:1;fill-rule:nonzero;stroke:none;stroke-width:4.12249994;stroke-linecap:round;stroke-linejoin:round;stroke-miterlimit:4;stroke-dasharray:none;stroke-dashoffset:0;stroke-opacity:1"
     id="path11488"
     d="m 34.438968,60.638604 c -0.0096,1.859334 -1.524699,3.358826 -3.384031,3.349209 -1.859332,-0.0096 -3.358823,-1.5247 -3.349206,-3.384034 0.0096,-1.859335 1.524699,-3.358826 3.384031,-3.34921 1.859332,0.0096 3.358823,1.524701 3.349206,3.384035 z" />
</svg>
